#N canvas 827 239 734 565 12;
#X obj 15 21 adc~ 1 2 3 4 5 6;
#X obj 1053 1577 hv.compressor~ -6 3;
#X obj 1037 1630 dac~ 1 2;
#X obj 153 692 hv.comb~ feedfwd 1 feedback 0 outdelay \$1;
#X obj 153 716 hv.comb~ feedfwd 1 feedback 0 outdelay \$1;
#X obj 153 743 hv.comb~ feedfwd 1 feedback 0 outdelay \$1;
#X obj 440 692 r delayb1;
#X obj 440 716 r delayb2;
#X obj 440 743 r delayb3;
#X obj 542 692 hv.comb~ feedfwd 1 feedback 0 outdelay \$1;
#X obj 542 716 hv.comb~ feedfwd 1 feedback 0 outdelay \$1;
#X obj 542 743 hv.comb~ feedfwd 1 feedback 0 outdelay \$1;
#X obj 826 692 r delaye1;
#X obj 826 716 r delaye2;
#X obj 826 743 r delaye3;
#X obj 902 692 hv.comb~ feedfwd 1 feedback 0 outdelay \$1;
#X obj 902 716 hv.comb~ feedfwd 1 feedback 0 outdelay \$1;
#X obj 902 743 hv.comb~ feedfwd 1 feedback 0 outdelay \$1;
#X obj 1186 692 r delaya1;
#X obj 1186 716 r delaya2;
#X obj 1186 743 r delaya3;
#X obj 1266 692 hv.comb~ feedfwd 1 feedback 0 outdelay \$1;
#X obj 1266 716 hv.comb~ feedfwd 1 feedback 0 outdelay \$1;
#X obj 1266 743 hv.comb~ feedfwd 1 feedback 0 outdelay \$1;
#X obj 1549 692 r delayd1;
#X obj 1549 716 r delayd2;
#X obj 1549 743 r delayd3;
#X obj 1631 692 hv.comb~ feedfwd 1 feedback 0 outdelay \$1;
#X obj 1631 716 hv.comb~ feedfwd 1 feedback 0 outdelay \$1;
#X obj 1631 743 hv.comb~ feedfwd 1 feedback 0 outdelay \$1;
#X obj 1910 692 r delayg1;
#X obj 1914 716 r delayg2;
#X obj 1914 743 r delayg3;
#X obj 1989 692 hv.comb~ feedfwd 1 feedback 0 outdelay \$1;
#X obj 1989 716 hv.comb~ feedfwd 1 feedback 0 outdelay \$1;
#X obj 1989 743 hv.comb~ feedfwd 1 feedback 0 outdelay \$1;
#X obj 2268 692 r delayc1;
#X obj 2268 716 r delayc2;
#X obj 2268 743 r delayc3;
#X obj 559 1649 unpack f f f f f f f f f f f f f f f f f f;
#X obj 559 1319 select 0 1 2 3;
#X obj 559 1770 s delayb1;
#X obj 559 1834 s delayb3;
#X obj 559 1803 s delayb2;
#X obj 639 1770 s delaye1;
#X obj 639 1803 s delaye2;
#X obj 639 1834 s delaye3;
#X obj 713 1770 s delaya1;
#X obj 713 1803 s delaya2;
#X obj 713 1834 s delaya3;
#X obj 793 1770 s delayd1;
#X obj 793 1803 s delayd2;
#X obj 793 1834 s delayd3;
#X obj 879 1770 s delayg1;
#X obj 879 1803 s delayg2;
#X obj 879 1834 s delayg3;
#X obj 959 1770 s delayc1;
#X obj 959 1803 s delayc2;
#X obj 959 1834 s delayc3;
#X msg 559 1540 2.36 2.62 2.88 1.77 1.96 2.15 1.32 1.47 1.62 0.99 1.1 1.21 0.74 0.83 0.91 0.56 0.62 0.68;
#X msg 24 1540 2.67 2.85 3.03 2 2.13 2.26 1.5 1.6 1.7 1.12 1.2 1.28 0.84 0.9 0.96 0.63 0.67 0.72;
#X msg 24 1585 0.83 1.01 1.19 0.62 0.76 0.89 0.47 0.57 0.67 0.35 0.42 0.49 0.26 0.32 0.38 0.2 0.24 0.29;
#X msg 559 1585 1.19 1.64 2.09 0.89 1.22 1.55 0.67 0.92 1.16 0.5 0.69 0.87 0.38 0.52 0.66 0.28 0.39 0.49;
#X obj 559 1257 hradio 20 1 1 4 empty empty empty 0 -8 0 10 #e4e4e4 #4d4d4d #373737 2;
#X floatatom 559 1289 5 0 0 0 - - - 0;
#X floatatom 559 1712 5 0 0 0 - - - 0;
#X floatatom 589 1712 5 0 0 0 - - - 0;
#X floatatom 619 1712 5 0 0 0 - - - 0;
#X floatatom 649 1712 5 0 0 0 - - - 0;
#X floatatom 679 1712 5 0 0 0 - - - 0;
#X floatatom 709 1712 5 0 0 0 - - - 0;
#X floatatom 735 1712 5 0 0 0 - - - 0;
#X floatatom 761 1712 5 0 0 0 - - - 0;
#X floatatom 791 1712 5 0 0 0 - - - 0;
#X floatatom 817 1712 5 0 0 0 - - - 0;
#X floatatom 847 1712 5 0 0 0 - - - 0;
#X floatatom 875 1712 5 0 0 0 - - - 0;
#X floatatom 904 1712 5 0 0 0 - - - 0;
#X floatatom 934 1712 5 0 0 0 - - - 0;
#X floatatom 964 1712 5 0 0 0 - - - 0;
#X floatatom 990 1712 5 0 0 0 - - - 0;
#X floatatom 1019 1712 5 0 0 0 - - - 0;
#X floatatom 1053 1712 5 0 0 0 - - - 0;
#X obj 24 1649 unpack f f f f f f f f f f f f f f f f f f;
#X floatatom 24 1712 4 0 0 0 - - - 8;
#X floatatom 54 1712 4 0 0 0 - - - 8;
#X floatatom 84 1712 4 0 0 0 - - - 8;
#X floatatom 114 1712 4 0 0 0 - - - 8;
#X floatatom 144 1712 4 0 0 0 - - - 8;
#X floatatom 174 1712 4 0 0 0 - - - 8;
#X floatatom 200 1712 4 0 0 0 - - - 8;
#X floatatom 226 1712 4 0 0 0 - - - 8;
#X floatatom 256 1712 4 0 0 0 - - - 8;
#X floatatom 282 1712 4 0 0 0 - - - 8;
#X floatatom 312 1712 4 0 0 0 - - - 8;
#X floatatom 340 1712 4 0 0 0 - - - 8;
#X floatatom 369 1712 4 0 0 0 - - - 8;
#X floatatom 399 1712 4 0 0 0 - - - 8;
#X floatatom 429 1712 4 0 0 0 - - - 8;
#X floatatom 455 1712 4 0 0 0 - - - 8;
#X floatatom 484 1712 4 0 0 0 - - - 8;
#X floatatom 518 1712 4 0 0 0 - - - 8;
#X obj 27 1770 s delaynb1;
#X obj 107 1770 s delayne1;
#X obj 181 1770 s delayna1;
#X obj 261 1770 s delaynd1;
#X obj 347 1770 s delayng1;
#X obj 427 1770 s delaync1;
#X obj 427 1803 s delaync2;
#X obj 427 1834 s delaync3;
#X obj 347 1834 s delayng3;
#X obj 347 1803 s delayng2;
#X obj 261 1834 s delaynd3;
#X obj 261 1803 s delaynd2;
#X obj 181 1834 s delayna3;
#X obj 181 1803 s delayna2;
#X obj 107 1834 s delayne3;
#X obj 107 1803 s delayne2;
#X obj 27 1834 s delaynb3;
#X obj 27 1803 s delaynb2;
#X obj 153 1033 hv.comb~ feedfwd 1 feedback 0 outdelay \$1;
#X obj 153 1057 hv.comb~ feedfwd 1 feedback 0 outdelay \$1;
#X obj 153 1081 hv.comb~ feedfwd 1 feedback 0 outdelay \$1;
#X obj 542 1033 hv.comb~ feedfwd 1 feedback 0 outdelay \$1;
#X obj 542 1057 hv.comb~ feedfwd 1 feedback 0 outdelay \$1;
#X obj 542 1081 hv.comb~ feedfwd 1 feedback 0 outdelay \$1;
#X obj 911 1033 hv.comb~ feedfwd 1 feedback 0 outdelay \$1;
#X obj 911 1057 hv.comb~ feedfwd 1 feedback 0 outdelay \$1;
#X obj 911 1081 hv.comb~ feedfwd 1 feedback 0 outdelay \$1;
#X obj 1266 1033 hv.comb~ feedfwd 1 feedback 0 outdelay \$1;
#X obj 1266 1057 hv.comb~ feedfwd 1 feedback 0 outdelay \$1;
#X obj 1266 1081 hv.comb~ feedfwd 1 feedback 0 outdelay \$1;
#X obj 1631 1033 hv.comb~ feedfwd 1 feedback 0 outdelay \$1;
#X obj 1631 1057 hv.comb~ feedfwd 1 feedback 0 outdelay \$1;
#X obj 1631 1081 hv.comb~ feedfwd 1 feedback 0 outdelay \$1;
#X obj 1989 1033 hv.comb~ feedfwd 1 feedback 0 outdelay \$1;
#X obj 1989 1057 hv.comb~ feedfwd 1 feedback 0 outdelay \$1;
#X obj 1989 1081 hv.comb~ feedfwd 1 feedback 0 outdelay \$1;
#X obj 440 1033 r delaynb1;
#X obj 440 1057 r delaynb2;
#X obj 440 1081 r delaynb3;
#X obj 826 1033 r delayne1;
#X obj 826 1057 r delayne2;
#X obj 826 1081 r delayne3;
#X obj 1186 1033 r delayna1;
#X obj 1186 1057 r delayna2;
#X obj 1186 1081 r delayna3;
#X obj 1549 1033 r delaynd1;
#X obj 1549 1057 r delaynd2;
#X obj 1549 1081 r delaynd3;
#X obj 1914 1033 r delayng1;
#X obj 1914 1057 r delayng2;
#X obj 1914 1081 r delayng3;
#X obj 2268 1033 r delaync1;
#X obj 2268 1057 r delaync2;
#X obj 2268 1081 r delaync3;
#X msg 838 1392 0;
#X msg 869 1392 1;
#X obj 826 1476 *~;
#X obj 1053 1517 *~;
#X text 1053 1402 Neck Pickup Volume;
#X text 364 1223 Presets: \; 1: P-Bass \; 2: J-Bass \; 3: Stingray, f 13;
#X obj 1053 1426 r NeckVolume @hv_param 0 100 100;
#X obj 559 1224 r Preset @hv_param 0 3 0 int;
#X text 24 1032 Neck Pickup;
#X text 24 691 Bridge Pickup;
#X obj 495 167 r BStringDistance @hv_param 0.1 50 15;
#X obj 495 190 r EStringDistance @hv_param 0.1 50 15;
#X obj 495 214 r AStringDistance @hv_param 0.1 50 15;
#X obj 495 237 r DStringDistance @hv_param 0.1 50 15;
#X obj 495 261 r GStringDistance @hv_param 0.1 50 15;
#X obj 495 285 r CStringDistance @hv_param 0.1 50 15;
#X msg 936 167 0.002915;
#X obj 761 167 *;
#X obj 829 167 s gk_delayb;
#X obj 761 190 *;
#X obj 761 214 *;
#X obj 761 237 *;
#X obj 761 261 *;
#X obj 761 285 *;
#X obj 829 190 s gk_delaye;
#X obj 829 214 s gk_delaya;
#X obj 829 237 s gk_delayd;
#X obj 829 261 s gk_delayg;
#X obj 829 285 s gk_delayc;
#X obj 359 365 r gk_delayb;
#X obj 153 407 hv.comb~ feedfwd 0 feedback 0.7 outdelay \$1;
#X obj 493 406 hv.comb~ feedfwd 0 feedback 0.7 outdelay \$1;
#X obj 873 406 hv.comb~ feedfwd 0 feedback 0.7 outdelay \$1;
#X obj 1253 406 hv.comb~ feedfwd 0 feedback 0.7 outdelay \$1;
#X obj 1593 406 hv.comb~ feedfwd 0 feedback 0.7 outdelay \$1;
#X obj 1973 406 hv.comb~ feedfwd 0 feedback 0.7 outdelay \$1;
#X obj 153 167 send~ b_string;
#X obj 153 190 send~ e_string;
#X obj 153 214 send~ a_string;
#X obj 153 237 send~ d_string;
#X obj 153 261 send~ g_string;
#X obj 153 285 send~ c_string;
#X obj 153 365 receive~ b_string;
#X obj 493 365 receive~ e_string;
#X obj 873 365 receive~ a_string;
#X obj 1253 365 receive~ d_string;
#X obj 1593 365 receive~ g_string;
#X obj 1973 365 receive~ c_string;
#X obj 2179 365 r gk_delayc;
#X obj 1799 365 r gk_delayg;
#X obj 1459 365 r gk_delayd;
#X obj 1080 365 r gk_delaya;
#X obj 699 365 r gk_delaye;
#X obj 153 449 send~ b_corrected;
#X obj 493 449 send~ e_corrected;
#X obj 873 449 send~ a_corrected;
#X obj 1253 449 send~ d_corrected;
#X obj 1593 449 send~ g_corrected;
#X obj 1973 449 send~ c_corrected;
#X obj 153 660 receive~ b_corrected;
#X obj 542 660 receive~ e_corrected;
#X obj 902 660 receive~ a_corrected;
#X obj 1631 660 receive~ g_corrected;
#X obj 1989 660 receive~ c_corrected;
#X obj 1266 660 receive~ d_corrected;
#X obj 1298 1426 receive~ bridge;
#X obj 826 1426 receive~ neck;
#X obj 1093 843 send~ bridge;
#X obj 1093 1192 send~ neck;
#X obj 153 1002 receive~ b_corrected;
#X obj 1989 1002 receive~ c_corrected;
#X obj 1631 1002 receive~ g_corrected;
#X obj 1266 1002 receive~ d_corrected;
#X obj 911 1002 receive~ a_corrected;
#X obj 542 1002 receive~ e_corrected;
#X connect 0 0 192 0;
#X connect 0 1 193 0;
#X connect 0 2 194 0;
#X connect 0 3 195 0;
#X connect 0 4 196 0;
#X connect 0 5 197 0;
#X connect 1 0 2 0;
#X connect 1 0 2 1;
#X connect 3 0 223 0;
#X connect 4 0 223 0;
#X connect 5 0 223 0;
#X connect 6 0 3 1;
#X connect 7 0 4 1;
#X connect 8 0 5 1;
#X connect 9 0 223 0;
#X connect 10 0 223 0;
#X connect 11 0 223 0;
#X connect 12 0 9 1;
#X connect 13 0 10 1;
#X connect 14 0 11 1;
#X connect 15 0 223 0;
#X connect 16 0 223 0;
#X connect 17 0 223 0;
#X connect 18 0 15 1;
#X connect 19 0 16 1;
#X connect 20 0 17 1;
#X connect 21 0 223 0;
#X connect 22 0 223 0;
#X connect 23 0 223 0;
#X connect 24 0 21 1;
#X connect 25 0 22 1;
#X connect 26 0 23 1;
#X connect 27 0 223 0;
#X connect 28 0 223 0;
#X connect 29 0 223 0;
#X connect 30 0 27 1;
#X connect 31 0 28 1;
#X connect 32 0 29 1;
#X connect 33 0 223 0;
#X connect 34 0 223 0;
#X connect 35 0 223 0;
#X connect 36 0 33 1;
#X connect 37 0 34 1;
#X connect 38 0 35 1;
#X connect 39 0 65 0;
#X connect 39 1 66 0;
#X connect 39 2 67 0;
#X connect 39 3 68 0;
#X connect 39 4 69 0;
#X connect 39 5 70 0;
#X connect 39 6 71 0;
#X connect 39 7 72 0;
#X connect 39 8 73 0;
#X connect 39 9 74 0;
#X connect 39 10 75 0;
#X connect 39 11 76 0;
#X connect 39 12 77 0;
#X connect 39 13 78 0;
#X connect 39 14 79 0;
#X connect 39 15 80 0;
#X connect 39 16 81 0;
#X connect 39 17 82 0;
#X connect 40 0 59 0;
#X connect 40 0 156 0;
#X connect 40 1 61 0;
#X connect 40 1 157 0;
#X connect 40 1 60 0;
#X connect 40 2 62 0;
#X connect 40 2 156 0;
#X connect 59 0 39 0;
#X connect 60 0 83 0;
#X connect 61 0 39 0;
#X connect 62 0 39 0;
#X connect 63 0 64 0;
#X connect 64 0 40 0;
#X connect 65 0 41 0;
#X connect 66 0 43 0;
#X connect 67 0 42 0;
#X connect 68 0 44 0;
#X connect 69 0 45 0;
#X connect 70 0 46 0;
#X connect 71 0 47 0;
#X connect 72 0 48 0;
#X connect 73 0 49 0;
#X connect 74 0 50 0;
#X connect 75 0 51 0;
#X connect 76 0 52 0;
#X connect 77 0 53 0;
#X connect 78 0 54 0;
#X connect 79 0 55 0;
#X connect 80 0 56 0;
#X connect 81 0 57 0;
#X connect 82 0 58 0;
#X connect 83 0 84 0;
#X connect 83 1 85 0;
#X connect 83 2 86 0;
#X connect 83 3 87 0;
#X connect 83 4 88 0;
#X connect 83 5 89 0;
#X connect 83 6 90 0;
#X connect 83 7 91 0;
#X connect 83 8 92 0;
#X connect 83 9 93 0;
#X connect 83 10 94 0;
#X connect 83 11 95 0;
#X connect 83 12 96 0;
#X connect 83 13 97 0;
#X connect 83 14 98 0;
#X connect 83 15 99 0;
#X connect 83 16 100 0;
#X connect 83 17 101 0;
#X connect 84 0 102 0;
#X connect 85 0 119 0;
#X connect 86 0 118 0;
#X connect 87 0 103 0;
#X connect 88 0 117 0;
#X connect 89 0 116 0;
#X connect 90 0 104 0;
#X connect 91 0 115 0;
#X connect 92 0 114 0;
#X connect 93 0 105 0;
#X connect 94 0 113 0;
#X connect 95 0 112 0;
#X connect 96 0 106 0;
#X connect 97 0 111 0;
#X connect 98 0 110 0;
#X connect 99 0 107 0;
#X connect 100 0 108 0;
#X connect 101 0 109 0;
#X connect 120 0 224 0;
#X connect 121 0 224 0;
#X connect 122 0 224 0;
#X connect 123 0 224 0;
#X connect 124 0 224 0;
#X connect 125 0 224 0;
#X connect 126 0 224 0;
#X connect 127 0 224 0;
#X connect 128 0 224 0;
#X connect 129 0 224 0;
#X connect 130 0 224 0;
#X connect 131 0 224 0;
#X connect 132 0 224 0;
#X connect 133 0 224 0;
#X connect 134 0 224 0;
#X connect 135 0 224 0;
#X connect 136 0 224 0;
#X connect 137 0 224 0;
#X connect 138 0 120 1;
#X connect 139 0 121 1;
#X connect 140 0 122 1;
#X connect 141 0 123 1;
#X connect 142 0 124 1;
#X connect 143 0 125 1;
#X connect 144 0 126 1;
#X connect 145 0 127 1;
#X connect 146 0 128 1;
#X connect 147 0 129 1;
#X connect 148 0 130 1;
#X connect 149 0 131 1;
#X connect 150 0 132 1;
#X connect 151 0 133 1;
#X connect 152 0 134 1;
#X connect 153 0 135 1;
#X connect 154 0 136 1;
#X connect 155 0 137 1;
#X connect 156 0 158 1;
#X connect 157 0 158 1;
#X connect 158 0 159 0;
#X connect 159 0 1 0;
#X connect 162 0 159 1;
#X connect 163 0 63 0;
#X connect 166 0 173 0;
#X connect 167 0 175 0;
#X connect 168 0 176 0;
#X connect 169 0 177 0;
#X connect 170 0 178 0;
#X connect 171 0 179 0;
#X connect 172 0 173 1;
#X connect 172 0 175 1;
#X connect 172 0 176 1;
#X connect 172 0 177 1;
#X connect 172 0 178 1;
#X connect 172 0 179 1;
#X connect 173 0 174 0;
#X connect 173 0 175 1;
#X connect 175 0 180 0;
#X connect 176 0 181 0;
#X connect 177 0 182 0;
#X connect 178 0 183 0;
#X connect 179 0 184 0;
#X connect 185 0 186 1;
#X connect 186 0 209 0;
#X connect 187 0 210 0;
#X connect 188 0 211 0;
#X connect 189 0 212 0;
#X connect 190 0 213 0;
#X connect 191 0 214 0;
#X connect 198 0 186 0;
#X connect 199 0 187 0;
#X connect 200 0 188 0;
#X connect 201 0 189 0;
#X connect 202 0 190 0;
#X connect 203 0 191 0;
#X connect 204 0 191 1;
#X connect 205 0 190 1;
#X connect 206 0 189 1;
#X connect 207 0 188 1;
#X connect 208 0 187 1;
#X connect 215 0 3 0;
#X connect 215 0 4 0;
#X connect 215 0 5 0;
#X connect 216 0 9 0;
#X connect 216 0 10 0;
#X connect 216 0 11 0;
#X connect 217 0 15 0;
#X connect 217 0 16 0;
#X connect 217 0 17 0;
#X connect 218 0 27 0;
#X connect 218 0 28 0;
#X connect 218 0 29 0;
#X connect 219 0 33 0;
#X connect 219 0 34 0;
#X connect 219 0 35 0;
#X connect 220 0 21 0;
#X connect 220 0 22 0;
#X connect 220 0 23 0;
#X connect 221 0 1 0;
#X connect 222 0 158 0;
#X connect 225 0 120 0;
#X connect 225 0 121 0;
#X connect 225 0 122 0;
#X connect 226 0 135 0;
#X connect 226 0 136 0;
#X connect 226 0 137 0;
#X connect 227 0 132 0;
#X connect 227 0 133 0;
#X connect 227 0 134 0;
#X connect 228 0 129 0;
#X connect 228 0 130 0;
#X connect 228 0 131 0;
#X connect 229 0 126 0;
#X connect 229 0 127 0;
#X connect 229 0 128 0;
#X connect 230 0 123 0;
#X connect 230 0 124 0;
#X connect 230 0 125 0;
