#N canvas 671 366 683 472 12;
#X obj 559 82 dac~;
#X obj 40 284 hsl 162 19 0 50 0 0 b_string_distance empty Pickup\ offset\ (B\ string) 170 10 0 12 #fcfcfc #000000 #000000 0 1;
#N canvas 329 134 654 382 input_correction 0;
#X obj 71 35 inlet~;
#X obj 67 208 *~ 0.5;
#X obj 115 173 *~ -1;
#X obj 115 105 delwrite~ string 1000;
#X text 330 13 Pickup distance;
#X text 418 68 Fundamental frequency of string;
#X obj 443 105 0.864;
#X obj 296 105 /;
#X obj 382 139 *;
#X obj 443 139 *;
#X obj 500 105 2;
#X obj 115 139 vd~ string 2;
#X obj 185 12 r b_string_distance;
#X floatatom 288 66 5 0 0 0 - - - 0;
#X obj 64 242 throw~ corrected_b;
#X obj 416 41 r b_fundamental;
#X floatatom 383 93 5 0 0 0 - - - 0;
#X connect 0 0 3 0;
#X connect 1 0 14 0;
#X connect 2 0 1 0;
#X connect 6 0 9 0;
#X connect 7 0 11 0;
#X connect 8 0 7 1;
#X connect 9 0 8 0;
#X connect 10 0 9 1;
#X connect 11 0 2 0;
#X connect 12 0 13 0;
#X connect 13 0 7 0;
#X connect 15 0 16 0;
#X connect 16 0 8 0;
#X restore 56 188 pd input_correction;
#X obj 57 32 adc~ 1 2 3 4 5 6;
#X obj 40 312 hsl 162 19 0 50 0 0 e_string_distance empty Pickup\ offset\ (E\ string) 170 10 0 12 #fcfcfc #000000 #000000 0 1;
#X obj 40 340 hsl 162 19 0 50 0 0 a_string_distance empty Pickup\ offset\ (A\ string) 170 10 0 12 #fcfcfc #000000 #000000 0 1;
#X obj 38 382 hsl 162 19 0 50 0 0 d_string_distance empty Pickup\ offset\ (D\ string) 170 10 0 12 #fcfcfc #000000 #000000 0 1;
#X obj 38 410 hsl 162 19 0 50 0 0 g_string_distance empty Pickup\ offset\ (G\ string) 170 10 0 12 #fcfcfc #000000 #000000 0 1;
#X obj 38 438 hsl 162 19 0 50 0 0 c_string_distance empty Pickup\ offset\ (C\ string) 170 10 0 12 #fcfcfc #000000 #000000 0 1;
#N canvas 215 109 637 423 body_sim 0;
#X obj 178 54 t f f, f 15;
#X obj 180 142 tgl 15 0 empty empty empty 17 7 0 10 #fcfcfc #000000 #000000 0 1;
#X obj 267 90 tgl 15 0 empty empty empty 17 7 0 10 #fcfcfc #000000 #000000 0 1;
#X obj 178 91 != 1;
#X obj 116 180 *~;
#X obj 116 114 *~ 1;
#X obj 204 203 *~;
#X obj 115 264 *~ 1;
#X msg 266 114 \$1 10;
#X msg 178 114 \$1 10;
#X obj 265 151 line~;
#X obj 178 161 line~;
#X obj 336 44 inlet;
#X obj 376 79 inlet;
#X obj 407 109 inlet;
#X obj 438 147 inlet;
#X text 485 147 HF damping %;
#X text 453 109 Crossover freq.;
#X text 425 78 Internal feedback %;
#X obj 158 264 *~ 1;
#X text 383 44 output dB level \, 0-100;
#X floatatom 328 107 5 0 100 0 - - - 0;
#X floatatom 358 140 5 0 100 0 - - - 0;
#X floatatom 390 164 5 0 24000 0 - - - 0;
#X floatatom 441 173 5 0 100 0 - - - 0;
#X obj 305 239 rev3~ 70 50 200 80;
#X obj 175 18 r body_activate;
#X obj 13 18 r bdrige_op_b;
#X obj 63 68 r bdrige_op_c;
#X obj 53 58 r bdrige_op_g;
#X obj 43 48 r bdrige_op_d;
#X obj 33 38 r bdrige_op_a;
#X obj 23 28 r bdrige_op_e;
#X obj 41 321 throw~ body_l;
#X obj 155 354 throw~ body_r;
#X connect 0 0 3 0;
#X connect 0 1 2 0;
#X connect 1 0 9 0;
#X connect 2 0 8 0;
#X connect 3 0 1 0;
#X connect 4 0 25 0;
#X connect 4 0 25 1;
#X connect 5 0 4 0;
#X connect 5 0 6 0;
#X connect 6 0 7 0;
#X connect 6 0 19 0;
#X connect 7 0 33 0;
#X connect 8 0 10 0;
#X connect 9 0 11 0;
#X connect 10 0 4 1;
#X connect 11 0 6 1;
#X connect 12 0 21 0;
#X connect 13 0 22 0;
#X connect 14 0 23 0;
#X connect 15 0 24 0;
#X connect 19 0 34 0;
#X connect 21 0 25 2;
#X connect 22 0 25 3;
#X connect 23 0 25 4;
#X connect 24 0 25 5;
#X connect 25 0 7 0;
#X connect 25 1 19 0;
#X connect 26 0 0 0;
#X connect 27 0 5 0;
#X connect 28 0 5 0;
#X connect 29 0 5 0;
#X connect 30 0 5 0;
#X connect 31 0 5 0;
#X connect 32 0 5 0;
#X restore 447 35 pd body_sim;
#N canvas 185 245 779 496 presets 0;
#X floatatom 64 50 5 0 4 0 - - - 0;
#X obj 120 243 unpack f f f f f;
#X obj 37 6 inlet;
#X msg 158 123 110 0 50 0 0;
#X msg 160 152 97 137 45 1 0;
#X msg 177 180 87 0 60 0 0;
#X msg 177 209 0 0 0 0 1;
#X obj 89 77 select 0 1 2 3;
#X floatatom 105 289 5 0 0 0 - - - 0;
#X floatatom 173 288 5 0 0 0 - - - 0;
#X floatatom 233 288 5 0 0 0 - - - 0;
#X floatatom 297 287 5 0 0 0 - - - 0;
#X floatatom 362 283 5 0 0 0 - - - 0;
#X obj 100 450 s bridge_distance;
#X obj 157 418 s neck_distance;
#X obj 214 393 s pu_width;
#X obj 261 370 s neck_pu_activate;
#X obj 315 334 s body_activate;
#X connect 0 0 7 0;
#X connect 1 0 8 0;
#X connect 1 1 9 0;
#X connect 1 2 10 0;
#X connect 1 3 11 0;
#X connect 1 4 12 0;
#X connect 2 0 0 0;
#X connect 3 0 1 0;
#X connect 4 0 1 0;
#X connect 5 0 1 0;
#X connect 6 0 1 0;
#X connect 7 0 3 0;
#X connect 7 1 4 0;
#X connect 7 2 5 0;
#X connect 7 3 6 0;
#X connect 8 0 13 0;
#X connect 9 0 14 0;
#X connect 10 0 15 0;
#X connect 11 0 16 0;
#X connect 12 0 17 0;
#X restore 434 326 pd presets;
#X obj 433 296 hradio 19 1 1 4 preset_trigger empty Presets 0 -10 0 12 #fcfcfc #000000 #000000 0;
#N canvas 1010 245 498 534 bridge_sim 0;
#X text 144 99 Pickup distance;
#X text 263 4 Fundamental frequency of string;
#X obj 303 117 0.864;
#X obj 323 175 *;
#X obj 384 175 *;
#X obj 440 154 2;
#X obj 53 147 expr $f1 / $f2;
#X text 350 27 Pickup width;
#X obj 207 216 expr $f1 / $f2;
#X obj 207 257 expr $f1 / 2;
#X obj 116 334 expr $f1 * $f2;
#X obj 233 334 expr $f1 * $f2;
#X obj 207 298 +;
#X obj 254 293 -;
#X obj 19 66 delwrite~ pickup~ 1000;
#X obj 162 422 +~;
#X obj 116 375 vd~ pickup~;
#X obj 233 375 vd~ pickup~;
#X obj 150 4 r b_fundamental;
#X obj 14 6 catch~ corrected_b;
#X obj 14 96 r bridge_distance;
#X obj 269 25 r pu_width;
#X obj 163 481 throw~ bridge_op_b;
#X connect 2 0 4 0;
#X connect 2 0 6 1;
#X connect 2 0 8 1;
#X connect 4 0 3 0;
#X connect 5 0 4 1;
#X connect 6 0 12 0;
#X connect 6 0 13 0;
#X connect 8 0 9 0;
#X connect 9 0 12 1;
#X connect 9 0 13 1;
#X connect 10 0 16 0;
#X connect 11 0 17 0;
#X connect 12 0 10 1;
#X connect 13 0 11 1;
#X connect 15 0 22 0;
#X connect 16 0 15 0;
#X connect 17 0 15 1;
#X connect 18 0 3 1;
#X connect 19 0 14 0;
#X connect 20 0 6 0;
#X connect 21 0 8 0;
#X restore 319 65 pd bridge_sim;
#X obj 435 380 hsl 162 19 0 1 0 0 blend empty Pickup\ blend -2 -10 0 12 #fcfcfc #000000 #000000 0 1;
#N canvas 1002 104 678 511 pickup_mix 0;
#X floatatom 412 163 5 0 0 0 - - - 0;
#X obj 411 115 expr 1 - $f1;
#X obj 239 295 *~;
#X obj 81 342 *~;
#X obj 446 393 outlet~;
#X obj 413 204 t f 20;
#X obj 36 252 t f 20;
#X obj 415 246 line~;
#X obj 50 285 line~;
#X floatatom 35 218 5 0 0 0 - - - 0;
#X obj 412 37 r blend;
#X obj 125 23 catch~ bridge_op_b;
#X obj 126 46 catch~ bridge_op_e;
#X obj 126 67 catch~ bridge_op_a;
#X obj 124 88 catch~ bridge_op_d;
#X obj 124 109 catch~ bridge_op_g;
#X obj 124 132 catch~ bridge_op_c;
#X obj 277 31 catch~ neck_op_b;
#X obj 278 55 catch~ neck_op_e;
#X obj 278 77 catch~ neck_op_a;
#X obj 280 100 catch~ neck_op_d;
#X obj 281 122 catch~ neck_op_g;
#X obj 281 146 catch~ neck_op_c;
#X connect 0 0 5 0;
#X connect 1 0 0 0;
#X connect 2 0 4 0;
#X connect 3 0 4 0;
#X connect 5 0 7 0;
#X connect 5 1 7 1;
#X connect 6 0 8 0;
#X connect 6 1 8 1;
#X connect 7 0 2 1;
#X connect 8 0 3 0;
#X connect 9 0 6 0;
#X connect 10 0 1 0;
#X connect 10 0 9 0;
#X connect 11 0 3 1;
#X connect 12 0 3 1;
#X connect 13 0 3 1;
#X connect 14 0 3 1;
#X connect 15 0 3 1;
#X connect 16 0 3 1;
#X connect 17 0 2 0;
#X connect 18 0 2 0;
#X connect 19 0 2 0;
#X connect 20 0 2 0;
#X connect 21 0 2 0;
#X connect 22 0 2 0;
#X restore 559 34 pd pickup_mix;
#N canvas 1091 536 450 377 fundamentals 0;
#X obj 19 98 30.87;
#X obj 75 98 41.2;
#X obj 116 98 55;
#X obj 162 98 73.42;
#X obj 214 98 98;
#X obj 245 98 130.81;
#X obj 17 303 s b_fundamental;
#X obj 245 135 s c_fundamental;
#X obj 214 166 s g_fundamental;
#X obj 166 198 s d_fundamental;
#X obj 124 233 s a_fundamental;
#X obj 75 269 s e_fundamental;
#X obj 19 52 bng 19 250 50 0 empty empty empty 0 -10 0 12 #fcfcfc #000000 #000000;
#X obj 17 18 r preset_trigger;
#X connect 0 0 6 0;
#X connect 1 0 11 0;
#X connect 2 0 10 0;
#X connect 3 0 9 0;
#X connect 4 0 8 0;
#X connect 5 0 7 0;
#X connect 12 0 0 0;
#X connect 12 0 1 0;
#X connect 12 0 2 0;
#X connect 12 0 3 0;
#X connect 12 0 4 0;
#X connect 12 0 5 0;
#X connect 13 0 12 0;
#X restore 317 35 pd fundamentals;
#N canvas 540 97 654 382 input_correction 0;
#X obj 71 35 inlet~;
#X obj 67 208 *~ 0.5;
#X obj 115 173 *~ -1;
#X obj 115 105 delwrite~ string 1000;
#X text 330 13 Pickup distance;
#X text 418 68 Fundamental frequency of string;
#X obj 443 105 0.864;
#X obj 296 105 /;
#X obj 382 139 *;
#X obj 443 139 *;
#X obj 500 105 2;
#X obj 115 139 vd~ string 2;
#X floatatom 288 66 5 0 0 0 - - - 0;
#X floatatom 383 93 5 0 0 0 - - - 0;
#X obj 416 41 r e_fundamental;
#X obj 185 12 r e_string_distance;
#X obj 64 242 throw~ corrected_e;
#X connect 0 0 3 0;
#X connect 1 0 16 0;
#X connect 2 0 1 0;
#X connect 6 0 9 0;
#X connect 7 0 11 0;
#X connect 8 0 7 1;
#X connect 9 0 8 0;
#X connect 10 0 9 1;
#X connect 11 0 2 0;
#X connect 12 0 7 0;
#X connect 13 0 8 0;
#X connect 14 0 13 0;
#X connect 15 0 12 0;
#X restore 79 163 pd input_correction;
#N canvas 540 97 654 382 input_correction 0;
#X obj 71 35 inlet~;
#X obj 67 208 *~ 0.5;
#X obj 115 173 *~ -1;
#X obj 115 105 delwrite~ string 1000;
#X text 330 13 Pickup distance;
#X text 418 68 Fundamental frequency of string;
#X obj 443 105 0.864;
#X obj 296 105 /;
#X obj 382 139 *;
#X obj 443 139 *;
#X obj 500 105 2;
#X obj 115 139 vd~ string 2;
#X floatatom 288 66 5 0 0 0 - - - 0;
#X floatatom 383 93 5 0 0 0 - - - 0;
#X obj 185 12 r a_string_distance;
#X obj 416 41 r a_fundamental;
#X obj 64 242 throw~ corrected_a;
#X connect 0 0 3 0;
#X connect 1 0 16 0;
#X connect 2 0 1 0;
#X connect 6 0 9 0;
#X connect 7 0 11 0;
#X connect 8 0 7 1;
#X connect 9 0 8 0;
#X connect 10 0 9 1;
#X connect 11 0 2 0;
#X connect 12 0 7 0;
#X connect 13 0 8 0;
#X connect 14 0 12 0;
#X connect 15 0 13 0;
#X restore 99 139 pd input_correction;
#N canvas 540 97 654 382 input_correction 0;
#X obj 71 35 inlet~;
#X obj 67 208 *~ 0.5;
#X obj 115 173 *~ -1;
#X obj 115 105 delwrite~ string 1000;
#X text 330 13 Pickup distance;
#X text 418 68 Fundamental frequency of string;
#X obj 443 105 0.864;
#X obj 296 105 /;
#X obj 382 139 *;
#X obj 443 139 *;
#X obj 500 105 2;
#X obj 115 139 vd~ string 2;
#X floatatom 288 66 5 0 0 0 - - - 0;
#X floatatom 383 93 5 0 0 0 - - - 0;
#X obj 185 12 r d_string_distance;
#X obj 416 41 r d_fundamental;
#X obj 64 242 throw~ corrected_d;
#X connect 0 0 3 0;
#X connect 1 0 16 0;
#X connect 2 0 1 0;
#X connect 6 0 9 0;
#X connect 7 0 11 0;
#X connect 8 0 7 1;
#X connect 9 0 8 0;
#X connect 10 0 9 1;
#X connect 11 0 2 0;
#X connect 12 0 7 0;
#X connect 13 0 8 0;
#X connect 14 0 12 0;
#X connect 15 0 13 0;
#X restore 122 114 pd input_correction;
#N canvas 540 97 654 382 input_correction 0;
#X obj 71 35 inlet~;
#X obj 67 208 *~ 0.5;
#X obj 115 173 *~ -1;
#X obj 115 105 delwrite~ string 1000;
#X text 330 13 Pickup distance;
#X text 418 68 Fundamental frequency of string;
#X obj 443 105 0.864;
#X obj 296 105 /;
#X obj 382 139 *;
#X obj 443 139 *;
#X obj 500 105 2;
#X obj 115 139 vd~ string 2;
#X floatatom 288 66 5 0 0 0 - - - 0;
#X floatatom 383 93 5 0 0 0 - - - 0;
#X obj 185 12 r g_string_distance;
#X obj 416 41 r g_fundamental;
#X obj 64 242 throw~ corrected_g;
#X connect 0 0 3 0;
#X connect 1 0 16 0;
#X connect 2 0 1 0;
#X connect 6 0 9 0;
#X connect 7 0 11 0;
#X connect 8 0 7 1;
#X connect 9 0 8 0;
#X connect 10 0 9 1;
#X connect 11 0 2 0;
#X connect 12 0 7 0;
#X connect 13 0 8 0;
#X connect 14 0 12 0;
#X connect 15 0 13 0;
#X restore 145 89 pd input_correction;
#N canvas 540 97 654 382 input_correction 0;
#X obj 71 35 inlet~;
#X obj 67 208 *~ 0.5;
#X obj 115 173 *~ -1;
#X obj 115 105 delwrite~ string 1000;
#X text 330 13 Pickup distance;
#X text 418 68 Fundamental frequency of string;
#X obj 443 105 0.864;
#X obj 296 105 /;
#X obj 382 139 *;
#X obj 443 139 *;
#X obj 500 105 2;
#X obj 115 139 vd~ string 2;
#X floatatom 288 66 5 0 0 0 - - - 0;
#X floatatom 383 93 5 0 0 0 - - - 0;
#X obj 185 12 r c_string_distance;
#X obj 416 41 r c_fundamental;
#X obj 64 242 throw~ corrected_c;
#X connect 0 0 3 0;
#X connect 1 0 16 0;
#X connect 2 0 1 0;
#X connect 6 0 9 0;
#X connect 7 0 11 0;
#X connect 8 0 7 1;
#X connect 9 0 8 0;
#X connect 10 0 9 1;
#X connect 11 0 2 0;
#X connect 12 0 7 0;
#X connect 13 0 8 0;
#X connect 14 0 12 0;
#X connect 15 0 13 0;
#X restore 166 63 pd input_correction;
#N canvas 1010 245 498 534 bridge_sim 0;
#X text 144 99 Pickup distance;
#X text 263 4 Fundamental frequency of string;
#X obj 303 117 0.864;
#X obj 323 175 *;
#X obj 384 175 *;
#X obj 440 154 2;
#X obj 53 147 expr $f1 / $f2;
#X text 350 27 Pickup width;
#X obj 207 216 expr $f1 / $f2;
#X obj 207 257 expr $f1 / 2;
#X obj 116 334 expr $f1 * $f2;
#X obj 233 334 expr $f1 * $f2;
#X obj 207 298 +;
#X obj 254 293 -;
#X obj 19 66 delwrite~ pickup~ 1000;
#X obj 162 422 +~;
#X obj 116 375 vd~ pickup~;
#X obj 233 375 vd~ pickup~;
#X obj 14 96 r bridge_distance;
#X obj 269 25 r pu_width;
#X obj 14 6 catch~ corrected_e;
#X obj 150 4 r e_fundamental;
#X obj 163 481 throw~ bridge_op_e;
#X connect 2 0 4 0;
#X connect 2 0 6 1;
#X connect 2 0 8 1;
#X connect 4 0 3 0;
#X connect 5 0 4 1;
#X connect 6 0 12 0;
#X connect 6 0 13 0;
#X connect 8 0 9 0;
#X connect 9 0 12 1;
#X connect 9 0 13 1;
#X connect 10 0 16 0;
#X connect 11 0 17 0;
#X connect 12 0 10 1;
#X connect 13 0 11 1;
#X connect 15 0 22 0;
#X connect 16 0 15 0;
#X connect 17 0 15 1;
#X connect 18 0 6 0;
#X connect 19 0 8 0;
#X connect 20 0 14 0;
#X connect 21 0 3 1;
#X restore 321 93 pd bridge_sim;
#N canvas 1010 245 498 534 bridge_sim 0;
#X text 144 99 Pickup distance;
#X text 263 4 Fundamental frequency of string;
#X obj 303 117 0.864;
#X obj 323 175 *;
#X obj 384 175 *;
#X obj 440 154 2;
#X obj 53 147 expr $f1 / $f2;
#X text 350 27 Pickup width;
#X obj 207 216 expr $f1 / $f2;
#X obj 207 257 expr $f1 / 2;
#X obj 116 334 expr $f1 * $f2;
#X obj 233 334 expr $f1 * $f2;
#X obj 207 298 +;
#X obj 254 293 -;
#X obj 19 66 delwrite~ pickup~ 1000;
#X obj 162 422 +~;
#X obj 116 375 vd~ pickup~;
#X obj 233 375 vd~ pickup~;
#X obj 14 96 r bridge_distance;
#X obj 269 25 r pu_width;
#X obj 14 6 catch~ corrected_a;
#X obj 150 4 r a_fundamental;
#X obj 163 481 throw~ bridge_op_a;
#X connect 2 0 4 0;
#X connect 2 0 6 1;
#X connect 2 0 8 1;
#X connect 4 0 3 0;
#X connect 5 0 4 1;
#X connect 6 0 12 0;
#X connect 6 0 13 0;
#X connect 8 0 9 0;
#X connect 9 0 12 1;
#X connect 9 0 13 1;
#X connect 10 0 16 0;
#X connect 11 0 17 0;
#X connect 12 0 10 1;
#X connect 13 0 11 1;
#X connect 15 0 22 0;
#X connect 16 0 15 0;
#X connect 17 0 15 1;
#X connect 18 0 6 0;
#X connect 19 0 8 0;
#X connect 20 0 14 0;
#X connect 21 0 3 1;
#X restore 320 117 pd bridge_sim;
#N canvas 1010 245 498 534 bridge_sim 0;
#X text 144 99 Pickup distance;
#X text 263 4 Fundamental frequency of string;
#X obj 303 117 0.864;
#X obj 323 175 *;
#X obj 384 175 *;
#X obj 440 154 2;
#X obj 53 147 expr $f1 / $f2;
#X text 350 27 Pickup width;
#X obj 207 216 expr $f1 / $f2;
#X obj 207 257 expr $f1 / 2;
#X obj 116 334 expr $f1 * $f2;
#X obj 233 334 expr $f1 * $f2;
#X obj 207 298 +;
#X obj 254 293 -;
#X obj 19 66 delwrite~ pickup~ 1000;
#X obj 162 422 +~;
#X obj 116 375 vd~ pickup~;
#X obj 233 375 vd~ pickup~;
#X obj 14 96 r bridge_distance;
#X obj 269 25 r pu_width;
#X obj 14 6 catch~ corrected_d;
#X obj 150 4 r d_fundamental;
#X obj 163 481 throw~ bridge_op_d;
#X connect 2 0 4 0;
#X connect 2 0 6 1;
#X connect 2 0 8 1;
#X connect 4 0 3 0;
#X connect 5 0 4 1;
#X connect 6 0 12 0;
#X connect 6 0 13 0;
#X connect 8 0 9 0;
#X connect 9 0 12 1;
#X connect 9 0 13 1;
#X connect 10 0 16 0;
#X connect 11 0 17 0;
#X connect 12 0 10 1;
#X connect 13 0 11 1;
#X connect 15 0 22 0;
#X connect 16 0 15 0;
#X connect 17 0 15 1;
#X connect 18 0 6 0;
#X connect 19 0 8 0;
#X connect 20 0 14 0;
#X connect 21 0 3 1;
#X restore 319 145 pd bridge_sim;
#N canvas 1010 245 498 534 bridge_sim 0;
#X text 144 99 Pickup distance;
#X text 263 4 Fundamental frequency of string;
#X obj 303 117 0.864;
#X obj 323 175 *;
#X obj 384 175 *;
#X obj 440 154 2;
#X obj 53 147 expr $f1 / $f2;
#X text 350 27 Pickup width;
#X obj 207 216 expr $f1 / $f2;
#X obj 207 257 expr $f1 / 2;
#X obj 116 334 expr $f1 * $f2;
#X obj 233 334 expr $f1 * $f2;
#X obj 207 298 +;
#X obj 254 293 -;
#X obj 19 66 delwrite~ pickup~ 1000;
#X obj 162 422 +~;
#X obj 116 375 vd~ pickup~;
#X obj 233 375 vd~ pickup~;
#X obj 14 96 r bridge_distance;
#X obj 269 25 r pu_width;
#X obj 14 6 catch~ corrected_g;
#X obj 150 4 r g_fundamental;
#X obj 162 482 throw~ bridge_op_g;
#X connect 2 0 4 0;
#X connect 2 0 6 1;
#X connect 2 0 8 1;
#X connect 4 0 3 0;
#X connect 5 0 4 1;
#X connect 6 0 12 0;
#X connect 6 0 13 0;
#X connect 8 0 9 0;
#X connect 9 0 12 1;
#X connect 9 0 13 1;
#X connect 10 0 16 0;
#X connect 11 0 17 0;
#X connect 12 0 10 1;
#X connect 13 0 11 1;
#X connect 15 0 22 0;
#X connect 16 0 15 0;
#X connect 17 0 15 1;
#X connect 18 0 6 0;
#X connect 19 0 8 0;
#X connect 20 0 14 0;
#X connect 21 0 3 1;
#X restore 321 173 pd bridge_sim;
#N canvas 1010 245 498 534 bridge_sim 0;
#X text 144 99 Pickup distance;
#X text 263 4 Fundamental frequency of string;
#X obj 303 117 0.864;
#X obj 323 175 *;
#X obj 384 175 *;
#X obj 440 154 2;
#X obj 53 147 expr $f1 / $f2;
#X text 350 27 Pickup width;
#X obj 207 216 expr $f1 / $f2;
#X obj 207 257 expr $f1 / 2;
#X obj 116 334 expr $f1 * $f2;
#X obj 233 334 expr $f1 * $f2;
#X obj 207 298 +;
#X obj 254 293 -;
#X obj 19 66 delwrite~ pickup~ 1000;
#X obj 162 422 +~;
#X obj 116 375 vd~ pickup~;
#X obj 233 375 vd~ pickup~;
#X obj 14 96 r bridge_distance;
#X obj 269 25 r pu_width;
#X obj 14 6 catch~ corrected_c;
#X obj 150 4 r c_fundamental;
#X obj 163 481 throw~ bridge_op_c;
#X connect 2 0 4 0;
#X connect 2 0 6 1;
#X connect 2 0 8 1;
#X connect 4 0 3 0;
#X connect 5 0 4 1;
#X connect 6 0 12 0;
#X connect 6 0 13 0;
#X connect 8 0 9 0;
#X connect 9 0 12 1;
#X connect 9 0 13 1;
#X connect 10 0 16 0;
#X connect 11 0 17 0;
#X connect 12 0 10 1;
#X connect 13 0 11 1;
#X connect 15 0 22 0;
#X connect 16 0 15 0;
#X connect 17 0 15 1;
#X connect 18 0 6 0;
#X connect 19 0 8 0;
#X connect 20 0 14 0;
#X connect 21 0 3 1;
#X restore 320 197 pd bridge_sim;
#N canvas 1010 245 498 534 neck_sim 0;
#X text 144 99 Pickup distance;
#X text 263 4 Fundamental frequency of string;
#X obj 303 117 0.864;
#X obj 323 175 *;
#X obj 384 175 *;
#X obj 440 154 2;
#X obj 53 147 expr $f1 / $f2;
#X text 350 27 Pickup width;
#X obj 207 216 expr $f1 / $f2;
#X obj 207 257 expr $f1 / 2;
#X obj 116 334 expr $f1 * $f2;
#X obj 233 334 expr $f1 * $f2;
#X obj 207 298 +;
#X obj 254 293 -;
#X obj 19 66 delwrite~ pickup~ 1000;
#X obj 162 422 +~;
#X obj 116 375 vd~ pickup~;
#X obj 233 375 vd~ pickup~;
#X obj 150 4 r b_fundamental;
#X obj 14 6 catch~ corrected_b;
#X obj 269 25 r pu_width;
#X obj 14 96 r neck_distance;
#X obj 163 481 throw~ neck_op_b;
#X connect 2 0 4 0;
#X connect 2 0 6 1;
#X connect 2 0 8 1;
#X connect 4 0 3 0;
#X connect 5 0 4 1;
#X connect 6 0 12 0;
#X connect 6 0 13 0;
#X connect 8 0 9 0;
#X connect 9 0 12 1;
#X connect 9 0 13 1;
#X connect 10 0 16 0;
#X connect 11 0 17 0;
#X connect 12 0 10 1;
#X connect 13 0 11 1;
#X connect 15 0 22 0;
#X connect 16 0 15 0;
#X connect 17 0 15 1;
#X connect 18 0 3 1;
#X connect 19 0 14 0;
#X connect 20 0 8 0;
#X connect 21 0 6 0;
#X restore 455 66 pd neck_sim;
#N canvas 1010 245 498 534 neck_sim 0;
#X text 144 99 Pickup distance;
#X text 263 4 Fundamental frequency of string;
#X obj 303 117 0.864;
#X obj 323 175 *;
#X obj 384 175 *;
#X obj 440 154 2;
#X obj 53 147 expr $f1 / $f2;
#X text 350 27 Pickup width;
#X obj 207 216 expr $f1 / $f2;
#X obj 207 257 expr $f1 / 2;
#X obj 116 334 expr $f1 * $f2;
#X obj 233 334 expr $f1 * $f2;
#X obj 207 298 +;
#X obj 254 293 -;
#X obj 19 66 delwrite~ pickup~ 1000;
#X obj 162 422 +~;
#X obj 116 375 vd~ pickup~;
#X obj 233 375 vd~ pickup~;
#X obj 269 25 r pu_width;
#X obj 14 6 catch~ corrected_e;
#X obj 150 4 r e_fundamental;
#X obj 14 96 r neck_distance;
#X obj 163 481 throw~ neck_op_e;
#X connect 2 0 4 0;
#X connect 2 0 6 1;
#X connect 2 0 8 1;
#X connect 4 0 3 0;
#X connect 5 0 4 1;
#X connect 6 0 12 0;
#X connect 6 0 13 0;
#X connect 8 0 9 0;
#X connect 9 0 12 1;
#X connect 9 0 13 1;
#X connect 10 0 16 0;
#X connect 11 0 17 0;
#X connect 12 0 10 1;
#X connect 13 0 11 1;
#X connect 15 0 22 0;
#X connect 16 0 15 0;
#X connect 17 0 15 1;
#X connect 18 0 8 0;
#X connect 19 0 14 0;
#X connect 20 0 3 1;
#X connect 21 0 6 0;
#X restore 457 94 pd neck_sim;
#N canvas 1010 245 498 534 neck_sim 0;
#X text 144 99 Pickup distance;
#X text 263 4 Fundamental frequency of string;
#X obj 303 117 0.864;
#X obj 323 175 *;
#X obj 384 175 *;
#X obj 440 154 2;
#X obj 53 147 expr $f1 / $f2;
#X text 350 27 Pickup width;
#X obj 207 216 expr $f1 / $f2;
#X obj 207 257 expr $f1 / 2;
#X obj 116 334 expr $f1 * $f2;
#X obj 233 334 expr $f1 * $f2;
#X obj 207 298 +;
#X obj 254 293 -;
#X obj 19 66 delwrite~ pickup~ 1000;
#X obj 162 422 +~;
#X obj 116 375 vd~ pickup~;
#X obj 233 375 vd~ pickup~;
#X obj 269 25 r pu_width;
#X obj 14 6 catch~ corrected_a;
#X obj 150 4 r a_fundamental;
#X obj 14 96 r neck_distance;
#X obj 163 481 throw~ neck_op_a;
#X connect 2 0 4 0;
#X connect 2 0 6 1;
#X connect 2 0 8 1;
#X connect 4 0 3 0;
#X connect 5 0 4 1;
#X connect 6 0 12 0;
#X connect 6 0 13 0;
#X connect 8 0 9 0;
#X connect 9 0 12 1;
#X connect 9 0 13 1;
#X connect 10 0 16 0;
#X connect 11 0 17 0;
#X connect 12 0 10 1;
#X connect 13 0 11 1;
#X connect 15 0 22 0;
#X connect 16 0 15 0;
#X connect 17 0 15 1;
#X connect 18 0 8 0;
#X connect 19 0 14 0;
#X connect 20 0 3 1;
#X connect 21 0 6 0;
#X restore 457 118 pd neck_sim;
#N canvas 1010 245 498 534 neck_sim 0;
#X text 144 99 Pickup distance;
#X text 263 4 Fundamental frequency of string;
#X obj 303 117 0.864;
#X obj 323 175 *;
#X obj 384 175 *;
#X obj 440 154 2;
#X obj 53 147 expr $f1 / $f2;
#X text 350 27 Pickup width;
#X obj 207 216 expr $f1 / $f2;
#X obj 207 257 expr $f1 / 2;
#X obj 116 334 expr $f1 * $f2;
#X obj 233 334 expr $f1 * $f2;
#X obj 207 298 +;
#X obj 254 293 -;
#X obj 19 66 delwrite~ pickup~ 1000;
#X obj 162 422 +~;
#X obj 116 375 vd~ pickup~;
#X obj 233 375 vd~ pickup~;
#X obj 269 25 r pu_width;
#X obj 14 6 catch~ corrected_d;
#X obj 150 4 r d_fundamental;
#X obj 14 96 r neck_distance;
#X obj 163 481 throw~ neck_op_d;
#X connect 2 0 4 0;
#X connect 2 0 6 1;
#X connect 2 0 8 1;
#X connect 4 0 3 0;
#X connect 5 0 4 1;
#X connect 6 0 12 0;
#X connect 6 0 13 0;
#X connect 8 0 9 0;
#X connect 9 0 12 1;
#X connect 9 0 13 1;
#X connect 10 0 16 0;
#X connect 11 0 17 0;
#X connect 12 0 10 1;
#X connect 13 0 11 1;
#X connect 15 0 22 0;
#X connect 16 0 15 0;
#X connect 17 0 15 1;
#X connect 18 0 8 0;
#X connect 19 0 14 0;
#X connect 20 0 3 1;
#X connect 21 0 6 0;
#X restore 455 146 pd neck_sim;
#N canvas 1010 245 498 534 neck_sim 0;
#X text 144 99 Pickup distance;
#X text 263 4 Fundamental frequency of string;
#X obj 303 117 0.864;
#X obj 323 175 *;
#X obj 384 175 *;
#X obj 440 154 2;
#X obj 53 147 expr $f1 / $f2;
#X text 350 27 Pickup width;
#X obj 207 216 expr $f1 / $f2;
#X obj 207 257 expr $f1 / 2;
#X obj 116 334 expr $f1 * $f2;
#X obj 233 334 expr $f1 * $f2;
#X obj 207 298 +;
#X obj 254 293 -;
#X obj 19 66 delwrite~ pickup~ 1000;
#X obj 162 422 +~;
#X obj 116 375 vd~ pickup~;
#X obj 233 375 vd~ pickup~;
#X obj 269 25 r pu_width;
#X obj 14 6 catch~ corrected_g;
#X obj 150 4 r g_fundamental;
#X obj 14 96 r neck_distance;
#X obj 163 482 throw~ neck_op_g;
#X connect 2 0 4 0;
#X connect 2 0 6 1;
#X connect 2 0 8 1;
#X connect 4 0 3 0;
#X connect 5 0 4 1;
#X connect 6 0 12 0;
#X connect 6 0 13 0;
#X connect 8 0 9 0;
#X connect 9 0 12 1;
#X connect 9 0 13 1;
#X connect 10 0 16 0;
#X connect 11 0 17 0;
#X connect 12 0 10 1;
#X connect 13 0 11 1;
#X connect 15 0 22 0;
#X connect 16 0 15 0;
#X connect 17 0 15 1;
#X connect 18 0 8 0;
#X connect 19 0 14 0;
#X connect 20 0 3 1;
#X connect 21 0 6 0;
#X restore 457 174 pd neck_sim;
#N canvas 1010 245 498 534 neck_sim 0;
#X text 144 99 Pickup distance;
#X text 263 4 Fundamental frequency of string;
#X obj 303 117 0.864;
#X obj 323 175 *;
#X obj 384 175 *;
#X obj 440 154 2;
#X obj 53 147 expr $f1 / $f2;
#X text 350 27 Pickup width;
#X obj 207 216 expr $f1 / $f2;
#X obj 207 257 expr $f1 / 2;
#X obj 116 334 expr $f1 * $f2;
#X obj 233 334 expr $f1 * $f2;
#X obj 207 298 +;
#X obj 254 293 -;
#X obj 19 66 delwrite~ pickup~ 1000;
#X obj 162 422 +~;
#X obj 116 375 vd~ pickup~;
#X obj 233 375 vd~ pickup~;
#X obj 269 25 r pu_width;
#X obj 14 6 catch~ corrected_c;
#X obj 150 4 r c_fundamental;
#X obj 15 96 r neck_distance;
#X obj 163 481 throw~ neck_op_c;
#X connect 2 0 4 0;
#X connect 2 0 6 1;
#X connect 2 0 8 1;
#X connect 4 0 3 0;
#X connect 5 0 4 1;
#X connect 6 0 12 0;
#X connect 6 0 13 0;
#X connect 8 0 9 0;
#X connect 9 0 12 1;
#X connect 9 0 13 1;
#X connect 10 0 16 0;
#X connect 11 0 17 0;
#X connect 12 0 10 1;
#X connect 13 0 11 1;
#X connect 15 0 22 0;
#X connect 16 0 15 0;
#X connect 17 0 15 1;
#X connect 18 0 8 0;
#X connect 19 0 14 0;
#X connect 20 0 3 1;
#X connect 21 0 6 0;
#X restore 456 198 pd neck_sim;
#X connect 3 0 2 0;
#X connect 3 1 16 0;
#X connect 3 2 17 0;
#X connect 3 3 18 0;
#X connect 3 4 19 0;
#X connect 3 5 20 0;
#X connect 11 0 10 0;
#X connect 14 0 0 0;
#X connect 14 0 0 1;
